<svg width="31" height="16" viewBox="0 0 31 16" fill="none" xmlns="http://www.w3.org/2000/svg">
<path fill-rule="evenodd" clip-rule="evenodd" d="M24.3431 0.928882L30.7071 7.29284C31.0976 7.68337 31.0976 8.31653 30.7071 8.70706L24.3431 15.071C23.9526 15.4615 23.3195 15.4615 22.9289 15.071C22.5384 14.6805 22.5384 14.0473 22.9289 13.6568L27.5858 8.99995L0.999999 8.99995C0.447715 8.99995 -6.9206e-07 8.55223 -6.43778e-07 7.99995V7.99995C-5.95496e-07 7.44766 0.447714 6.99995 0.999999 6.99995L27.5858 6.99995L22.9289 2.3431C22.5384 1.95257 22.5384 1.31941 22.9289 0.928882C23.3195 0.538357 23.9526 0.538357 24.3431 0.928882Z" fill="#A29CE0"/>
</svg>
