<svg width="26" height="21" viewBox="0 0 26 21" fill="none" xmlns="http://www.w3.org/2000/svg">
<path d="M10.0811 8.72529L12.9991 15.2982L17.3248 12.7584V7.65527L10.0811 8.72529Z" fill="#9A88B0"/>
<path d="M22.922 3.83354L20.2214 2.79881L17.3262 2.55188V7.65502V18.4492L21.6633 21.0008L25.1192 13.8164L22.922 6.90249V3.83354Z" fill="#C3B1D7"/>
<path d="M22.6701 2.55188L21.6631 5.10345V20.9538L26.0002 18.4022V2.55188H22.6701Z" fill="#9A88B0"/>
<path d="M21.6633 0L17.3262 2.55157L21.6633 5.10314L26.0004 2.55157L21.6633 0Z" fill="#9080A6"/>
<path d="M12.9998 10.2066L8.66274 5.24455L0 2.55188V18.4022L4.33709 20.9538L5.57299 12.182L8.66274 12.7582L12.9998 15.298V10.2066Z" fill="#C3B1D7"/>
<path d="M4.33709 0L0 2.55157L12.9998 10.2063L14.9567 9.05397L17.3255 7.65471L4.33709 0Z" fill="#9080A6"/>
<path d="M4.33691 10.2061V20.9532L8.66256 18.4017V12.7576L4.33691 10.2061Z" fill="#9A88B0"/>
</svg>
