<svg width="147" height="147" viewBox="0 0 147 147" fill="none" xmlns="http://www.w3.org/2000/svg">
<g clip-path="url(#clip0_310_243)">
<path d="M73.5562 103.751C70.3542 103.751 67.7475 106.351 67.7475 109.551C67.7475 112.751 70.3542 115.356 73.5562 115.356C76.7582 115.356 79.2026 112.936 79.3604 109.853C79.365 109.754 79.365 109.651 79.365 109.551V109.457C79.3153 106.311 76.7086 103.751 73.5562 103.751ZM79.3424 72.3507C79.3424 69.7682 79.3514 67.1812 79.3514 64.5987V58.7441C79.3514 56.6303 79.3514 54.512 79.3469 52.3983C79.3424 47.6704 79.3334 42.7849 79.3604 37.9804C79.3604 37.8948 79.3604 37.8001 79.3604 37.71V37.6153C79.3108 34.4695 76.7041 31.9095 73.5517 31.9095C70.3993 31.9095 67.743 34.51 67.743 37.71C67.743 49.5499 67.743 61.3942 67.743 73.2341V91.8434L67.7475 91.9426C68.0136 94.9578 70.5075 97.2338 73.5472 97.2338C76.5869 97.2338 79.2071 94.809 79.365 91.7218C79.3695 91.6226 79.3695 91.5189 79.3695 91.4198V91.3342C79.3199 85.0063 79.3289 78.5749 79.3379 72.3507H79.3424ZM126.02 22.2014C112.211 8.16667 93.1923 0.0721118 73.8448 0C73.7501 0 73.6599 0 73.5697 0C54.1817 0 35.8174 7.65287 21.8322 21.5614C7.81098 35.5061 0.0584739 53.8676 -0.000154698 73.2611C-0.0587833 92.7268 7.61255 111.178 21.6022 125.209C35.5649 139.216 53.9472 146.955 73.3623 147H73.5292C93.1607 147 111.71 139.207 125.772 125.046C139.644 111.075 147.18 92.8079 146.991 73.6397C147.239 54.4715 139.793 36.2047 126.015 22.2059L126.02 22.2014ZM73.475 135.286C38.8661 134.696 11.7932 107.555 11.8383 73.482C11.8609 56.7295 18.2739 41.1443 29.8959 29.6019C41.4503 18.1271 56.8831 11.8218 73.3893 11.8218C73.5021 11.8218 73.6148 11.8218 73.7276 11.8218C108.373 12.0066 135.405 39.1522 135.261 73.6217C135.116 107.758 107.976 134.84 73.4705 135.282L73.475 135.286Z" fill="#6D6AA6"/>
</g>
<defs>
<clipPath id="clip0_310_243">
<rect width="147" height="147" fill="white"/>
</clipPath>
</defs>
</svg>
