<svg width="88" height="88" viewBox="0 0 88 88" fill="none" xmlns="http://www.w3.org/2000/svg">
<rect x="0.000976562" width="88" height="88" fill="url(#paint0_radial_263_638)"/>
<path d="M88 83.5V88C88 88 78.8082 88 75.428 88H12.5744C8.70398 88 0 88 0 88C0 88 0.00119579 78.5002 0.00119579 75.4272V64.4826C7.92547 56.5837 15.8466 48.6912 23.7709 40.7955C26.3232 38.2495 28.8693 35.6972 31.4217 33.1512C33.6786 30.8975 35.2817 30.885 37.5071 33.1072C41.936 37.5265 46.3555 41.9553 50.7907 46.3683C51.2214 46.7958 51.5357 47.4496 52.3121 47.3773C52.3152 48.0531 52.8559 48.3768 53.2582 48.776C64.0178 59.5446 74.7836 70.3101 85.5526 81.0723C85.7915 81.3081 87.7265 83.3083 88 83.5Z" fill="url(#paint1_linear_263_638)"/>
<path d="M88.0006 54.918V75.4273C88.0006 77.7501 88.0006 83.5 88.0006 83.5C87.7272 83.3083 85.7909 81.3082 85.552 81.0725C74.783 70.3102 64.0172 59.5448 53.2577 48.7762C52.8553 48.377 52.3147 48.0532 52.3115 47.3775C56.0018 43.6528 59.6669 39.8998 63.4011 36.2191C64.8973 34.7481 66.6481 34.9084 68.3235 36.48C74.7013 42.4615 81.0759 48.4493 87.4537 54.4308C87.6329 54.5974 87.8152 54.7577 88.0006 54.918Z" fill="url(#paint2_linear_263_638)"/>
<g filter="url(#filter0_d_263_638)">
<path d="M53.5566 15.7333C53.5566 15.7324 53.5574 15.7317 53.5582 15.7317C58.7817 15.7766 62.9583 20.0824 62.8765 25.3341C62.7948 30.4858 58.5356 34.6223 53.3523 34.5783C48.1282 34.5343 43.9507 30.2312 44.0324 24.9758C44.111 19.8278 48.3756 15.6917 53.5551 15.7348C53.5559 15.7348 53.5566 15.7341 53.5566 15.7333V15.7333Z" fill="url(#paint3_linear_263_638)"/>
</g>
<defs>
<filter id="filter0_d_263_638" x="23.0312" y="15.7317" width="60.8467" height="69.8469" filterUnits="userSpaceOnUse" color-interpolation-filters="sRGB">
<feFlood flood-opacity="0" result="BackgroundImageFix"/>
<feColorMatrix in="SourceAlpha" type="matrix" values="0 0 0 0 0 0 0 0 0 0 0 0 0 0 0 0 0 0 127 0" result="hardAlpha"/>
<feMorphology radius="19" operator="erode" in="SourceAlpha" result="effect1_dropShadow_263_638"/>
<feOffset dy="30"/>
<feGaussianBlur stdDeviation="20"/>
<feComposite in2="hardAlpha" operator="out"/>
<feColorMatrix type="matrix" values="0 0 0 0 0.366588 0 0 0 0 0.223529 0 0 0 0 0.670588 0 0 0 1 0"/>
<feBlend mode="normal" in2="BackgroundImageFix" result="effect1_dropShadow_263_638"/>
<feBlend mode="normal" in="SourceGraphic" in2="effect1_dropShadow_263_638" result="shape"/>
</filter>
<radialGradient id="paint0_radial_263_638" cx="0" cy="0" r="1" gradientUnits="userSpaceOnUse" gradientTransform="translate(44.001 44) rotate(90) scale(44)">
<stop stop-color="#4745A7"/>
<stop offset="1" stop-color="#4F3274"/>
</radialGradient>
<linearGradient id="paint1_linear_263_638" x1="43.1381" y1="31.4507" x2="43.1381" y2="88" gradientUnits="userSpaceOnUse">
<stop stop-color="#4239AB"/>
<stop offset="0.5376" stop-color="#824FB7"/>
<stop offset="0.876507" stop-color="#4A42AF"/>
</linearGradient>
<linearGradient id="paint2_linear_263_638" x1="70.1561" y1="35.2031" x2="70.1561" y2="81.7891" gradientUnits="userSpaceOnUse">
<stop stop-color="#7439AE"/>
<stop offset="0.263484" stop-color="#7439AE"/>
<stop offset="0.758437" stop-color="#24265F"/>
<stop offset="1" stop-color="#21244C"/>
</linearGradient>
<linearGradient id="paint3_linear_263_638" x1="32.501" y1="3.5" x2="24.1523" y2="63.2923" gradientUnits="userSpaceOnUse">
<stop stop-color="#A29CE0"/>
<stop offset="0.290112" stop-color="#7236AD"/>
<stop offset="0.347778" stop-color="#804BB5"/>
<stop offset="0.47934" stop-color="#A29CE0"/>
<stop offset="0.614192" stop-color="#5A52B5"/>
<stop offset="0.695323" stop-color="#4239AB"/>
<stop offset="0.739536" stop-color="#4239AB"/>
<stop offset="1" stop-color="#A29CE0"/>
</linearGradient>
</defs>
</svg>
