<svg width="24" height="25" viewBox="0 0 24 25" fill="none" xmlns="http://www.w3.org/2000/svg">
<path d="M21.9999 15.6134V16.9969C21.9999 17.2265 21.9899 17.4581 21.9699 17.6877C21.6893 20.8467 19.4949 22.911 16.3286 22.911H7.67126C6.06806 22.911 4.71535 22.3907 3.74341 21.4473C3.36265 21.0974 3.042 20.6863 2.7915 20.2151C3.12217 19.8131 3.49291 19.373 3.85363 18.9318C4.46485 18.2 5.05603 17.4771 5.42677 17.0069C5.97788 16.3252 7.43078 14.5306 9.44481 15.3728C9.85563 15.5432 10.2164 15.7838 10.547 15.9943C11.3586 16.5357 11.6993 16.6961 12.2705 16.3853C12.9017 16.0445 13.3125 15.3728 13.7434 14.671C13.9739 14.299 14.2043 13.9391 14.4548 13.6082C15.547 12.1846 17.2304 11.8036 18.6332 12.6458C19.3346 13.0669 19.9358 13.5982 20.4969 14.1386C20.6172 14.2589 20.7374 14.3702 20.8476 14.4805C20.9979 14.6309 21.4989 15.1321 21.9999 15.6134" fill="#5E5073"/>
<path d="M16.3387 2.91101H7.67134C4.27455 2.91101 2 5.28708 2 8.82512V16.997C2 18.2291 2.28056 19.3229 2.79158 20.2152C3.12224 19.8132 3.49299 19.3731 3.85371 18.9309C4.46493 18.2001 5.05611 17.4772 5.42685 17.007C5.97796 16.3253 7.43086 14.5307 9.44489 15.3729C9.85571 15.5433 10.2164 15.7839 10.5471 15.9944C11.3587 16.5358 11.6994 16.6962 12.2705 16.3844C12.9018 16.0446 13.3126 15.3729 13.7435 14.6701C13.9739 14.2991 14.2044 13.9392 14.4549 13.6083C15.5471 12.1847 17.2305 11.8037 18.6333 12.6459C19.3347 13.067 19.9359 13.5983 20.497 14.1387C20.6172 14.259 20.7375 14.3703 20.8477 14.4806C20.998 14.63 21.499 15.1312 22 15.6135V8.82512C22 5.28708 19.7255 2.91101 16.3387 2.91101" fill="#C3B1D7"/>
<path d="M11.4543 9.70769C11.4543 11.1163 10.2809 12.2893 8.87313 12.2893C7.46632 12.2893 6.29297 11.1163 6.29297 9.70769C6.29297 8.3001 7.46632 7.1261 8.87313 7.1261C10.2809 7.1261 11.4543 8.3001 11.4543 9.70769" fill="#5E5073"/>
</svg>
