<svg width="24" height="25" viewBox="0 0 24 25" fill="none" xmlns="http://www.w3.org/2000/svg">
<path d="M16.191 2.91101H7.81C4.77 2.91101 3 4.69101 3 7.74101V18.071C3 21.171 4.77 22.911 7.81 22.911H16.191C19.28 22.911 21 21.171 21 18.071V7.74101C21 4.69101 19.28 2.91101 16.191 2.91101" fill="#C3B1D7"/>
<path fill-rule="evenodd" clip-rule="evenodd" d="M8.07996 7.56104V7.57104C7.64896 7.57104 7.29996 7.92104 7.29996 8.35104C7.29996 8.78104 7.64896 9.13104 8.07996 9.13104H11.069C11.5 9.13104 11.85 8.78104 11.85 8.34004C11.85 7.91104 11.5 7.56104 11.069 7.56104H8.07996ZM15.92 13.651H8.07996C7.64896 13.651 7.29996 13.301 7.29996 12.871C7.29996 12.441 7.64896 12.09 8.07996 12.09H15.92C16.35 12.09 16.7 12.441 16.7 12.871C16.7 13.301 16.35 13.651 15.92 13.651ZM15.92 18.221H8.07996C7.77996 18.261 7.48996 18.111 7.32996 17.861C7.16996 17.601 7.16996 17.271 7.32996 17.021C7.48996 16.761 7.77996 16.621 8.07996 16.651H15.92C16.319 16.691 16.62 17.031 16.62 17.441C16.62 17.84 16.319 18.181 15.92 18.221Z" fill="#5E5073"/>
</svg>
