<svg width="24" height="25" viewBox="0 0 24 25" fill="none" xmlns="http://www.w3.org/2000/svg">
<path d="M16.8843 6.02586H13.9413C13.2081 6.0307 12.512 5.70456 12.0474 5.13852L11.0782 3.79863C10.6214 3.22762 9.9253 2.89996 9.19321 2.9113H7.11261C3.37819 2.9113 2.00001 5.10302 2.00001 8.82985V12.8584C1.99536 13.3014 21.9956 13.3008 21.9969 12.8584V11.6871C22.0147 7.96026 20.6721 6.02586 16.8843 6.02586Z" fill="#9080A6"/>
<path d="M21.5612 8.72332C21.3993 8.25882 21.1521 7.8285 20.8321 7.45442C20.7316 7.33629 20.6215 7.22649 20.5032 7.12611C19.4753 6.31769 18.1802 5.9249 16.8754 6.02581H7.09481C4.76525 6.02581 3.34261 6.78005 2.64908 8.2619C2.41496 8.74205 2.25031 9.25293 2.16005 9.77925C2.16005 9.97447 2.09781 10.1697 2.07113 10.3738C2.02357 10.8099 1.99983 11.2483 2 11.687V16.9401C1.99981 17.3829 2.03549 17.8251 2.1067 18.2622C2.21869 19.0347 2.48475 19.777 2.88915 20.4451C3.07337 20.7675 3.2974 21.0656 3.55601 21.3324C4.74461 22.4195 6.32049 22.9852 7.93061 22.903H16.0574C17.665 22.9858 19.2383 22.4198 20.4231 21.3324C20.6849 21.0661 20.9119 20.768 21.0989 20.4451C21.5057 19.7765 21.7775 19.0349 21.8991 18.2622C21.963 17.8244 21.9956 17.3825 21.9969 16.9401V11.687C22.0273 10.6813 21.8798 9.678 21.5612 8.72332Z" fill="#C3B1D7"/>
<path d="M17.0354 16.4521H6.97022C6.51353 16.4521 6.14331 16.0826 6.14331 15.6269C6.14331 15.1711 6.51353 14.8016 6.97022 14.8016H17.1154C17.3617 14.8044 17.5923 14.9228 17.7378 15.1211C17.8643 15.2686 17.9281 15.4597 17.9156 15.6535C17.9087 15.874 17.8136 16.0825 17.6515 16.2326C17.4895 16.3826 17.274 16.4617 17.0531 16.4521H17.0354Z" fill="#5E5073"/>
</svg>
