<svg width="184" height="42" viewBox="0 0 184 42" fill="none" xmlns="http://www.w3.org/2000/svg">
<path d="M42 5.32117V36.6788C42 39.0122 40.4994 40.9943 38.4082 41.7127C37.8655 41.8989 37.2854 42 36.6788 42H5.41961C2.42645 42 0 39.5735 0 36.5804V5.32117C0 2.38122 2.38388 0 5.32117 0H36.6788C39.6188 0 42 2.38122 42 5.32117Z" fill="url(#paint0_linear_333_242)"/>
<mask id="mask0_333_242" style="mask-type:alpha" maskUnits="userSpaceOnUse" x="2" y="2" width="38" height="38">
<path d="M40 6.81439V35.1856C40 37.2967 38.6423 39.0901 36.7503 39.74C36.2592 39.9085 35.7344 40 35.1856 40H6.90346C4.19536 40 2 37.8046 2 35.0965V6.81439C2 4.15444 4.15685 2 6.81439 2H35.1856C37.8456 2 40 4.15444 40 6.81439Z" fill="url(#paint1_linear_333_242)"/>
</mask>
<g mask="url(#mask0_333_242)">
<path d="M2 19.6606V2L36 40H22.187L2 19.6606Z" fill="white"/>
<path d="M47.5988 43.6178C46.9175 43.8732 46.1875 44.0174 45.4218 44.0294L42.2179 44.0794L14.1062 12.3167L14.084 5.51383L47.5988 43.6178Z" fill="white"/>
<path d="M15.3763 36.3804L5.66097 26.6343C4.31585 25.2853 2 26.2307 2 28.1294V34.5905C2 37.5781 4.43887 40 7.44733 40H13.8574C15.7587 40 16.7134 37.7215 15.3763 36.3804V36.3804Z" fill="white"/>
</g>
<path d="M52.1699 10.68H56.4479L66.1509 25.56V10.68H70.4289V33H66.1509L56.4479 18.12V33H52.1699V10.68Z" fill="#101D33"/>
<path d="M74.7539 10.68H88.3939V14.896H78.9699V19.732H86.5339V23.948H78.9699V33H74.7539V10.68Z" fill="#101D33"/>
<path d="M96.3694 14.617H89.3324V10.68H107.622V14.617H100.585V33H96.3694V14.617Z" fill="#101D33"/>
<path d="M115.381 10.68H124.805C125.518 10.68 126.138 10.7213 126.665 10.804C128.597 11.1036 130.039 11.8993 130.989 13.191C131.95 14.4723 132.431 16.0946 132.431 18.058C132.431 20.011 131.95 21.6333 130.989 22.925C130.028 24.2166 128.587 25.0123 126.665 25.312C126.138 25.3946 125.518 25.436 124.805 25.436H119.597V33H115.381V10.68ZM124.619 21.499C125.208 21.499 125.683 21.4473 126.045 21.344C126.82 21.1373 127.368 20.724 127.688 20.104C128.019 19.4736 128.184 18.7916 128.184 18.058C128.184 17.3243 128.019 16.6475 127.688 16.0275C127.368 15.3971 126.82 14.9786 126.045 14.772C125.683 14.6686 125.208 14.617 124.619 14.617H119.597V21.499H124.619Z" fill="#101D33"/>
<path d="M135.853 10.215H140.069V13.935H135.853V10.215ZM135.853 16.26H140.069V33H135.853V16.26Z" fill="#101D33"/>
<path d="M145.026 10.68H149.242V33H145.026V10.68Z" fill="#101D33"/>
<path d="M161.422 33.465C159.758 33.465 158.286 33.093 157.004 32.349C155.723 31.5946 154.726 30.551 154.013 29.218C153.31 27.8746 152.959 26.3453 152.959 24.63C152.959 22.9043 153.315 21.375 154.028 20.042C154.752 18.6986 155.754 17.655 157.035 16.911C158.327 16.167 159.789 15.795 161.422 15.795C163.085 15.795 164.558 16.1721 165.839 16.9265C167.131 17.6705 168.133 18.7141 168.846 20.0575C169.559 21.4008 169.916 22.925 169.916 24.63C169.916 26.3453 169.554 27.8746 168.831 29.218C168.118 30.551 167.115 31.5946 165.824 32.349C164.542 33.093 163.075 33.465 161.422 33.465ZM157.423 24.63C157.423 26.1593 157.764 27.358 158.446 28.226C159.138 29.094 160.13 29.528 161.422 29.528C162.734 29.528 163.731 29.0836 164.413 28.195C165.106 27.3063 165.452 26.118 165.452 24.63C165.452 23.111 165.106 21.9175 164.413 21.0495C163.721 20.1711 162.724 19.732 161.422 19.732C160.089 19.732 159.086 20.1711 158.415 21.0495C157.753 21.9175 157.423 23.111 157.423 24.63Z" fill="#101D33"/>
<path d="M183.368 33C182.294 33.1963 181.291 33.2945 180.361 33.2945C179.101 33.2945 178.005 33.1085 177.075 32.7365C176.145 32.3541 175.453 31.7496 174.998 30.923C174.719 30.4063 174.533 29.8793 174.44 29.342C174.347 28.8046 174.301 28.1691 174.301 27.4355L174.316 25.901V19.515H171.464V16.26H174.316V11.61H178.532V16.26H183.368V19.515H178.532V25.653V26.5365C178.532 27.0738 178.553 27.5078 178.594 27.8385C178.636 28.1691 178.729 28.443 178.873 28.66C179.297 29.3316 180.134 29.6675 181.384 29.6675C181.86 29.6675 182.521 29.6106 183.368 29.497V33Z" fill="#101D33"/>
<defs>
<linearGradient id="paint0_linear_333_242" x1="0.0345879" y1="38.5945" x2="41.9973" y2="3.3816" gradientUnits="userSpaceOnUse">
<stop stop-color="#A29CE0"/>
<stop offset="0.29" stop-color="#7236AD"/>
<stop offset="0.35" stop-color="#804BB5"/>
<stop offset="0.48" stop-color="#A29CE0"/>
<stop offset="0.61" stop-color="#5A52B5"/>
<stop offset="0.7" stop-color="#4239AB"/>
<stop offset="0.74" stop-color="#4239AB"/>
<stop offset="1" stop-color="#A29CE0"/>
</linearGradient>
<linearGradient id="paint1_linear_333_242" x1="2.03129" y1="36.9188" x2="39.9976" y2="5.05955" gradientUnits="userSpaceOnUse">
<stop stop-color="#A29CE0"/>
<stop offset="0.29" stop-color="#7236AD"/>
<stop offset="0.35" stop-color="#804BB5"/>
<stop offset="0.48" stop-color="#A29CE0"/>
<stop offset="0.61" stop-color="#5A52B5"/>
<stop offset="0.7" stop-color="#4239AB"/>
<stop offset="0.74" stop-color="#4239AB"/>
<stop offset="1" stop-color="#A29CE0"/>
</linearGradient>
</defs>
</svg>
