<svg width="620" height="360" viewBox="0 0 620 360" fill="none" xmlns="http://www.w3.org/2000/svg">
<rect width="620" height="360" fill="#151E3E"/>
<mask id="mask0_309_240" style="mask-type:alpha" maskUnits="userSpaceOnUse" x="0" y="0" width="620" height="360">
<rect width="620" height="360" fill="#151E3E"/>
</mask>
<g mask="url(#mask0_309_240)">
<g opacity="0.8" filter="url(#filter0_f_309_240)">
<ellipse cx="598.5" cy="253.5" rx="101.5" ry="143.5" fill="url(#paint0_linear_309_240)"/>
</g>
<rect opacity="0.06" width="52" height="51" transform="matrix(1 0 0 -1 540 177)" fill="#A29CE0"/>
<rect opacity="0.06" width="49" height="51" transform="matrix(1 0 0 -1 520 360)" fill="#A29CE0"/>
<rect opacity="0.05" width="51" height="51" transform="matrix(1 0 0 -1 397 237)" fill="#A29CE0"/>
<rect opacity="0.25" width="21" height="22" transform="matrix(1 0 0 -1 458 208)" fill="#A29CE0"/>
<rect opacity="0.05" width="23" height="22" transform="matrix(1 0 0 -1 569 208)" fill="#A29CE0"/>
<rect opacity="0.18" width="21" height="20" transform="matrix(1 0 0 -1 579 329)" fill="#A29CE0"/>
<rect opacity="0.52" width="20" height="21" transform="matrix(1 0 0 -1 600 147)" fill="#A29CE0"/>
<g opacity="0.8" filter="url(#filter1_f_309_240)">
<ellipse cy="141.5" rx="90" ry="112.5" fill="url(#paint1_linear_309_240)"/>
</g>
<rect opacity="0.03" y="153.067" width="111.156" height="111.156" fill="#A29CE0"/>
<rect opacity="0.06" x="123.911" y="153.067" width="49.2" height="49.2" fill="#A29CE0"/>
<rect opacity="0.03" x="123.911" y="29.1562" width="49.2" height="52.8444" fill="#A29CE0"/>
<rect opacity="0.35" x="123.911" y="215.021" width="18.2222" height="20.0444" fill="#A29CE0"/>
<rect opacity="0.06" x="236.889" width="56.4889" height="56.4889" fill="#A29CE0"/>
<rect opacity="0.05" x="306.133" y="34.6221" width="21.8667" height="21.8667" fill="#A29CE0"/>
<g opacity="0.8" filter="url(#filter2_f_309_240)">
<ellipse cx="362" cy="-8.5" rx="131" ry="79.5" fill="url(#paint2_linear_309_240)"/>
</g>
</g>
<defs>
<filter id="filter0_f_309_240" x="313" y="-74" width="571" height="655" filterUnits="userSpaceOnUse" color-interpolation-filters="sRGB">
<feFlood flood-opacity="0" result="BackgroundImageFix"/>
<feBlend mode="normal" in="SourceGraphic" in2="BackgroundImageFix" result="shape"/>
<feGaussianBlur stdDeviation="92" result="effect1_foregroundBlur_309_240"/>
</filter>
<filter id="filter1_f_309_240" x="-274" y="-155" width="548" height="593" filterUnits="userSpaceOnUse" color-interpolation-filters="sRGB">
<feFlood flood-opacity="0" result="BackgroundImageFix"/>
<feBlend mode="normal" in="SourceGraphic" in2="BackgroundImageFix" result="shape"/>
<feGaussianBlur stdDeviation="92" result="effect1_foregroundBlur_309_240"/>
</filter>
<filter id="filter2_f_309_240" x="47" y="-272" width="630" height="527" filterUnits="userSpaceOnUse" color-interpolation-filters="sRGB">
<feFlood flood-opacity="0" result="BackgroundImageFix"/>
<feBlend mode="normal" in="SourceGraphic" in2="BackgroundImageFix" result="shape"/>
<feGaussianBlur stdDeviation="92" result="effect1_foregroundBlur_309_240"/>
</filter>
<linearGradient id="paint0_linear_309_240" x1="488.658" y1="650.517" x2="775.614" y2="629.625" gradientUnits="userSpaceOnUse">
<stop stop-color="#A29CE0"/>
<stop offset="0.290112" stop-color="#7236AD"/>
<stop offset="0.347778" stop-color="#804BB5"/>
<stop offset="0.47934" stop-color="#A29CE0"/>
<stop offset="0.614192" stop-color="#5A52B5"/>
<stop offset="0.695323" stop-color="#4239AB"/>
<stop offset="0.739536" stop-color="#4239AB"/>
<stop offset="1" stop-color="#A29CE0"/>
</linearGradient>
<linearGradient id="paint1_linear_309_240" x1="-97.3973" y1="452.75" x2="156.673" y2="431.828" gradientUnits="userSpaceOnUse">
<stop stop-color="#A29CE0"/>
<stop offset="0.290112" stop-color="#7236AD"/>
<stop offset="0.347778" stop-color="#804BB5"/>
<stop offset="0.47934" stop-color="#A29CE0"/>
<stop offset="0.614192" stop-color="#5A52B5"/>
<stop offset="0.695323" stop-color="#4239AB"/>
<stop offset="0.739536" stop-color="#4239AB"/>
<stop offset="1" stop-color="#A29CE0"/>
</linearGradient>
<linearGradient id="paint2_linear_309_240" x1="220.233" y1="211.45" x2="582.142" y2="150.066" gradientUnits="userSpaceOnUse">
<stop stop-color="#A29CE0"/>
<stop offset="0.290112" stop-color="#7236AD"/>
<stop offset="0.347778" stop-color="#804BB5"/>
<stop offset="0.47934" stop-color="#A29CE0"/>
<stop offset="0.614192" stop-color="#5A52B5"/>
<stop offset="0.695323" stop-color="#4239AB"/>
<stop offset="0.739536" stop-color="#4239AB"/>
<stop offset="1" stop-color="#A29CE0"/>
</linearGradient>
</defs>
</svg>
