<svg width="80" height="80" viewBox="0 0 80 80" fill="none" xmlns="http://www.w3.org/2000/svg">
<path d="M41.6874 31.7299C36.874 31.7299 32.0595 31.72 27.2461 31.7373C26.1644 31.741 25.1315 31.5814 24.1263 31.193C23.4068 30.916 23.2714 31.0062 23.2676 31.7806C23.2551 34.2396 23.2639 36.6974 23.2576 39.1564C23.2576 39.4891 23.2551 39.8305 23.1849 40.1521C23.0458 40.7855 22.4779 41.1875 21.86 41.1417C21.2195 41.0947 20.7494 40.6469 20.6755 39.9963C20.6491 39.76 20.6516 39.5201 20.6516 39.2813C20.6516 34.7455 20.6466 30.2109 20.6516 25.6751C20.6554 23.0713 22.4153 20.8869 24.9949 20.2845C25.8209 20.094 26.6608 20 27.5119 20C36.2924 20.0025 45.073 20 53.8535 20.0049C54.2634 20.0049 54.6796 20.0186 55.0807 20.094C55.8967 20.2462 56.3417 20.7496 56.3341 21.4398C56.3266 22.1251 55.8766 22.6198 55.0506 22.7596C54.6019 22.8363 54.1368 22.8425 53.678 22.8437C44.6556 22.8487 35.6331 22.8462 26.6106 22.8499C24.9648 22.8499 23.8944 23.5747 23.4481 24.9613C22.9054 26.6461 23.8329 28.3617 25.5527 28.8602C26.1193 29.0247 26.6984 29.021 27.28 29.021C37.6813 29.021 48.0826 29.021 58.4838 29.021C58.8223 29.021 59.1607 29.0222 59.4992 29.0333C60.26 29.0568 60.7188 29.4626 60.8742 30.175C60.9594 30.5671 60.9883 30.979 60.9895 31.3823C60.9971 37.1588 61.0083 42.9352 60.9858 48.7117C60.9795 50.4311 60.6712 52.0614 59.444 53.4344C58.1015 54.9372 56.388 55.4815 54.4577 55.4914C49.8374 55.5161 45.2171 55.5013 40.5981 55.4976C40.3574 55.4976 40.1143 55.4642 39.8786 55.4209C39.1015 55.2774 38.59 54.7492 38.5825 54.0998C38.575 53.4875 39.0551 52.921 39.7896 52.7689C40.2108 52.6811 40.6533 52.6699 41.087 52.6687C45.6584 52.6613 50.231 52.6675 54.8024 52.6625C57.0073 52.66 58.1103 51.5814 58.1116 49.418C58.1166 43.952 58.1141 38.486 58.1116 33.0187C58.1116 31.8078 58.0326 31.7336 56.7816 31.7323C51.7502 31.7299 46.7188 31.7323 41.6874 31.7323V31.7299Z" fill="#706AB0"/>
<path d="M28.3231 51.4982C25.6908 51.5873 23.2352 50.9713 20.9752 49.6416C18.3643 48.1053 18.3342 45.2319 20.9226 43.6511C23.7617 41.9182 26.8929 41.552 30.1481 41.8279C32.3417 42.0134 34.3673 42.7049 36.1573 43.9517C38.233 45.3964 38.1089 48.1783 35.9254 49.5031C33.6027 50.9132 31.0619 51.596 28.3231 51.4982V51.4982ZM28.3582 48.7918C30.1431 48.8054 31.8717 48.5246 33.5062 47.7961C34.0477 47.5549 34.7534 47.3458 34.7634 46.6544C34.7734 45.9159 34.0351 45.7143 33.4761 45.4608C31.3728 44.5108 29.1454 44.3747 26.8791 44.538C25.6645 44.6258 24.4912 44.8979 23.3781 45.389C22.7727 45.6562 21.9479 45.843 21.9279 46.6148C21.9066 47.4065 22.7514 47.5673 23.338 47.8691C23.3593 47.8802 23.3832 47.8876 23.4045 47.8963C24.9901 48.5494 26.6484 48.8054 28.3582 48.7918Z" fill="#706AB0"/>
<path d="M46.0552 27.1524C43.2499 27.1524 40.4446 27.1536 37.6381 27.1524C37.3486 27.1524 37.0553 27.1586 36.7695 27.119C36.1365 27.0312 35.6501 26.5067 35.6514 25.9031C35.6514 25.2463 36.0086 24.8195 36.6404 24.6575C36.9387 24.5808 37.2633 24.5808 37.5754 24.5808C43.186 24.5771 48.7978 24.5783 54.4083 24.5783C54.481 24.5783 54.5537 24.5783 54.6264 24.5808C55.7896 24.6092 56.3148 25.0137 56.3286 25.8932C56.3424 26.7603 55.8297 27.1487 54.6164 27.1511C51.7622 27.1573 48.9081 27.1536 46.0552 27.1536V27.1524Z" fill="#706AB0"/>
<path d="M28.2657 60.0005C25.7174 59.914 23.1415 59.5985 20.8752 58.0981C20.5117 57.8582 20.1708 57.5898 19.8988 57.2496C19.4363 56.6707 19.4463 56.0003 19.9151 55.4882C20.3726 54.9872 21.0871 54.9007 21.6862 55.3435C25.1308 57.8903 28.915 57.5638 32.7682 56.6336C33.4576 56.4666 34.0479 56.0943 34.5769 55.6156C35.2751 54.9835 36.2215 54.9402 36.7216 55.4795C37.2418 56.0399 37.1202 57.0232 36.397 57.6429C35.1397 58.7191 33.623 59.2782 32.0261 59.622C30.8203 59.8818 29.5881 59.9733 28.2657 60.0005V60.0005Z" fill="#706AB0"/>
<path d="M28.1831 55.9504C26.1199 55.8551 24.0454 55.5818 22.0925 54.7085C21.2414 54.3275 20.4805 53.8352 19.8926 53.1116C19.4176 52.5278 19.4376 51.8487 19.9102 51.3564C20.3614 50.8864 21.1574 50.7862 21.6951 51.2414C24.1995 53.3602 27.1891 53.4085 30.2049 53.1252C31.9335 52.9632 33.6332 52.5439 34.9731 51.2636C35.4732 50.7862 36.293 50.9049 36.748 51.3824C37.1642 51.819 37.1968 52.5884 36.7844 53.0968C36.184 53.8389 35.4143 54.3572 34.5306 54.7369C32.5201 55.6003 30.4005 55.8811 28.1843 55.9504H28.1831Z" fill="#706AB0"/>
<path d="M53.4139 41.4927C53.4051 42.6876 52.4374 43.6264 51.2378 43.6016C50.121 43.5781 49.1195 42.5639 49.127 41.4655C49.1345 40.3634 50.1486 39.3639 51.2654 39.3565C52.4662 39.3491 53.4214 40.299 53.4126 41.4927H53.4139Z" fill="#706AB0"/>
<path d="M29.4452 27.1335C28.9137 27.1335 28.3785 27.1657 27.8495 27.1261C27.0949 27.0692 26.6286 26.5608 26.6299 25.8694C26.6311 25.1989 27.1238 24.6361 27.8558 24.6077C28.9425 24.5656 30.0331 24.5656 31.1198 24.6163C31.823 24.6485 32.2341 25.1742 32.2379 25.8755C32.2417 26.5905 31.8543 27.0531 31.1135 27.1174C30.562 27.1644 30.0017 27.1273 29.4464 27.1273C29.4464 27.1298 29.4464 27.1323 29.4464 27.1335H29.4452Z" fill="#706AB0"/>
</svg>
