<svg width="80" height="80" viewBox="0 0 80 80" fill="none" xmlns="http://www.w3.org/2000/svg">
<g clip-path="url(#clip0_257_323)">
<path d="M56.9893 33.5197C56.9893 32.5104 56.6189 31.626 55.8652 30.9036C52.5056 27.6826 49.1382 24.4691 45.7902 21.2394C44.901 20.381 43.8555 19.9975 42.6062 20C38.0049 20.0111 33.4037 20.0012 28.8025 20.0074C28.1146 20.0074 27.4253 20.0643 26.7658 20.2721C24.4826 20.992 23.0087 22.9724 23.0048 25.3609C22.9958 30.2443 23.0022 35.1277 23.0022 40.0124C23.0022 44.8339 22.9984 49.6555 23.0022 54.4783C23.0061 57.6535 25.2248 59.9431 28.5172 59.9654C36.1709 60.0161 43.8258 60.0111 51.4808 59.9678C54.6261 59.9505 56.9764 57.7018 56.9855 54.7863C57.0087 47.6975 56.9971 40.6098 56.9893 33.5209V33.5197ZM45.4043 25.3164C47.4216 27.2472 49.4273 29.1669 51.4562 31.1102C50.1307 31.1102 48.8001 31.1473 47.4732 31.0978C46.4781 31.0607 45.6418 30.3643 45.4792 29.3636C45.2585 28.0079 45.4146 26.6337 45.4043 25.3164V25.3164ZM53.8646 54.7418C53.862 56.121 52.956 56.9905 51.5298 56.9918C43.8516 56.9992 36.1735 56.998 28.4953 56.9918C27.0291 56.9918 26.1321 56.1272 26.1295 54.7072C26.1205 49.7805 26.1256 44.855 26.1256 39.9283C26.1256 35.0634 26.1334 30.1998 26.1179 25.3349C26.1153 24.3466 26.5103 23.6304 27.4279 23.1752C27.7248 23.028 28.041 22.9922 28.3649 22.9922C32.7958 22.9922 37.2254 22.9971 41.6562 22.981C42.2073 22.9786 42.3532 23.1839 42.3467 23.6774C42.3235 25.3473 42.3829 27.0184 42.3287 28.6858C42.2254 31.8684 45.0674 34.2037 47.9456 34.0491C49.6829 33.9563 51.4291 34.0491 53.1702 34.0231C53.711 34.0157 53.8762 34.2037 53.8749 34.7059C53.8633 41.3841 53.8711 48.0623 53.862 54.7406L53.8646 54.7418ZM44.7435 42.2438C43.9265 42.229 43.1095 42.2116 42.2938 42.2488C41.7195 42.2747 41.4742 42.1201 41.5117 41.5264C41.5607 40.7471 41.5336 39.9617 41.5194 39.1787C41.5039 38.2844 40.8121 37.5806 39.9835 37.5892C39.151 37.5979 38.4876 38.2992 38.4747 39.2047C38.4631 40.0285 38.4541 40.8523 38.4773 41.6761C38.4902 42.1139 38.3069 42.2661 37.8681 42.2438C37.4177 42.2215 36.9659 42.2389 36.5142 42.2389C36.149 42.2389 35.7837 42.2364 35.4184 42.2389C34.3498 42.2488 33.6334 42.8425 33.6425 43.7083C33.6515 44.542 34.3653 45.1419 35.3887 45.158C36.2264 45.1704 37.0653 45.1741 37.903 45.158C38.3147 45.1494 38.4838 45.2929 38.4747 45.6973C38.4554 46.5211 38.4618 47.3449 38.4734 48.1687C38.4863 49.162 39.0878 49.7582 40.0442 49.7458C40.9464 49.7347 41.5091 49.1311 41.5207 48.1452C41.5297 47.3425 41.5401 46.5384 41.5168 45.7357C41.5052 45.3089 41.6653 45.1469 42.1144 45.1568C43.0166 45.1766 43.92 45.1865 44.8209 45.1481C45.7076 45.1098 46.3568 44.4554 46.3491 43.6861C46.34 42.8821 45.6586 42.2599 44.7409 42.2438H44.7435Z" fill="#A29CE0"/>
</g>
<defs>
<clipPath id="clip0_257_323">
<rect width="34" height="40" fill="white" transform="translate(23 20)"/>
</clipPath>
</defs>
</svg>
