<svg width="80" height="80" viewBox="0 0 80 80" fill="none" xmlns="http://www.w3.org/2000/svg">
<g clip-path="url(#clip0_257_249)">
<path d="M59.0181 37.5892C58.2147 37.5892 57.5621 38.2411 57.5621 39.0463V45.727C57.1283 45.2149 56.6944 44.7016 56.2593 44.1895C54.7341 42.3898 53.1557 40.5282 51.6095 38.6913C51.0619 38.0407 50.4983 37.844 49.7839 38.0518C49.3884 38.1669 49.1189 38.4922 48.8075 38.8682L48.7135 38.9808C48.1042 39.7081 47.4936 40.4342 46.8842 41.1615C45.0735 43.3187 43.2009 45.5489 41.3741 47.7556C41.1319 48.0475 40.8562 48.3184 40.4793 48.3184C40.4743 48.3184 40.4706 48.3184 40.4657 48.3184C40.0763 48.3122 39.7945 48.0104 39.593 47.7494C38.6018 46.4655 37.5388 45.1964 36.5104 43.9693L36.3831 43.8184C36.0062 43.3682 35.5674 43.1282 35.1125 43.1257C35.1088 43.1257 35.1063 43.1257 35.1039 43.1257C34.6663 43.1257 34.2448 43.3471 33.8839 43.7665C32.8222 44.9985 31.7494 46.2577 30.7123 47.4748C30.2192 48.0524 29.7272 48.6313 29.2341 49.209C28.3046 50.2975 27.3751 51.386 26.4036 52.5215L24.5039 54.7443L24.3704 53.7671C24.3556 53.657 24.3432 53.5766 24.3333 53.5135C24.3148 53.3972 24.3024 53.3193 24.3024 53.2278C24.3024 51.642 24.3012 50.0575 24.2999 48.4718C24.2975 43.6156 24.2938 38.5936 24.3098 33.6545C24.316 31.5616 25.5978 30.3123 27.7348 30.3099C33.8011 30.3061 42.1516 30.3049 49.1301 30.3061C49.9347 30.3061 50.5861 29.653 50.5861 28.8478C50.5861 28.0425 49.9335 27.3894 49.1288 27.3894H43.9537C38.4312 27.3907 32.9087 27.3919 27.3863 27.3882H27.3801C24.8327 27.3882 23.0219 28.5658 21.8428 30.9889C21.5251 31.6408 21.378 32.3768 21.3805 33.302C21.3904 37.3653 21.3879 41.4955 21.3867 45.4895V48.3666C21.3854 48.8552 21.3632 49.2498 21.0801 49.5021C20.8997 49.6629 20.6797 49.7136 20.4139 49.7136C20.2619 49.7136 20.0963 49.6976 19.9134 49.6765C18.026 49.4613 16.9371 48.2021 16.9259 46.223C16.9136 44.1499 16.916 42.0422 16.9185 40.0049C16.9185 39.1478 16.921 38.2906 16.921 37.4334V34.2977C16.921 31.7249 16.921 29.1521 16.921 26.5793C16.921 25.92 16.968 25.2211 17.3153 24.5754C17.9073 23.4746 18.9233 22.9167 20.3336 22.9167H20.3423C23.546 22.9216 26.8029 22.9204 29.9522 22.9204H33.549C34.8394 22.9204 36.1273 22.9204 37.4164 22.9192C40.4545 22.9179 43.594 22.9167 46.684 22.9241C48.145 22.9278 49.1758 23.4807 49.7295 24.5358C49.9841 25.022 50.4983 25.3151 51.0459 25.3151C52.1805 25.3151 52.9098 24.1029 52.3733 23.1035C51.3784 21.2468 49.4354 20.0087 47.1673 20.0062C42.7115 20.0012 38.1395 20 33.4859 20C28.8324 20 24.4582 20.0025 19.8614 20.0062C16.5873 20.0087 14.0164 22.5728 14.0102 25.842C13.9966 32.6984 13.9966 39.7056 14.0102 46.6671C14.0164 49.9734 16.6256 52.5833 19.9492 52.6093C21.1864 52.6192 21.3743 52.8097 21.3879 54.0689C21.4225 57.3876 24.0404 59.9889 27.3479 59.9926C36.1705 60 45.3071 60 54.5055 59.9926C57.8217 59.9901 60.4395 57.3913 60.4642 54.0763C60.4692 53.4343 60.4679 52.7812 60.4667 52.1492C60.4667 51.9104 60.4667 51.668 60.4667 51.4256C60.4729 51.3711 60.4766 51.3155 60.4766 51.2586V39.0438C60.4766 38.2398 59.8252 37.5867 59.0206 37.5867L59.0181 37.5892ZM57.5065 54.1147C57.3409 55.9218 56.1654 57.0004 54.2817 57.0746C53.8195 57.0932 53.3547 57.0895 52.9048 57.0858C52.7182 57.0845 52.5328 57.0833 52.3462 57.0833H50.3475C43.0205 57.0833 35.6947 57.0833 28.3676 57.0796C28.3194 57.0796 28.2725 57.0821 28.223 57.0858C28.1588 57.0895 28.0895 57.0932 28.0141 57.0932C27.809 57.0932 27.563 57.0635 27.2911 56.9176L26.8066 56.6578L27.9177 55.3565C28.4529 54.7307 28.9807 54.1122 29.5085 53.4937C29.9262 53.0051 30.344 52.5165 30.7618 52.028C31.9076 50.6896 33.0917 49.3055 34.2399 47.9325C34.4364 47.6974 34.7108 47.4278 35.0878 47.4278H35.0989C35.4809 47.4327 35.7503 47.7123 35.9419 47.9547C36.6773 48.8837 37.4449 49.8138 38.1877 50.7143C38.4646 51.0495 38.7414 51.386 39.0171 51.7212C39.5115 52.3236 39.9985 52.6303 40.4644 52.6328H40.4706C40.9292 52.6328 41.41 52.3384 41.897 51.7583L42.3802 51.1831C44.7113 48.4099 47.1228 45.5427 49.4687 42.7027C49.6727 42.4553 49.9211 42.1906 50.2783 42.1906H50.2808C50.6219 42.1906 50.8704 42.4331 51.0681 42.6693C52.5316 44.4208 54.037 46.1871 55.493 47.8966C56.0381 48.5361 56.5819 49.1756 57.1258 49.8151C57.2815 49.9994 57.5436 50.3074 57.5423 50.7551C57.5423 51.0854 57.5473 51.4231 57.5522 51.7509C57.5658 52.524 57.5794 53.323 57.5065 54.1134V54.1147ZM64.5455 27.3981H60.4741V23.3236C60.4741 22.5196 59.8228 21.8665 59.0181 21.8665C58.2135 21.8665 57.5621 22.5184 57.5621 23.3236V27.3969H53.4907C52.6873 27.3969 52.0347 28.0487 52.0347 28.854C52.0347 29.658 52.6861 30.3111 53.4907 30.3111H57.5621V34.3856C57.5621 35.1896 58.2135 35.8427 59.0181 35.8427C59.8228 35.8427 60.4741 35.1908 60.4741 34.3856V30.3111H64.5455C65.3489 30.3111 66.0015 29.6592 66.0015 28.854C66.0015 28.05 65.3502 27.3969 64.5455 27.3969V27.3981ZM32.4366 35.0053C31.3823 35.0053 30.5492 35.834 30.5393 36.8941C30.5294 38.0642 31.276 38.8583 32.3995 38.8694C32.9668 38.8769 33.4439 38.695 33.7949 38.3499C34.1447 38.0061 34.3314 37.5286 34.3338 36.9707C34.3375 36.4191 34.1398 35.9144 33.7789 35.5507C33.4316 35.2007 32.9557 35.0065 32.4403 35.0053H32.4353H32.4366Z" fill="#A29CE0"/>
</g>
<defs>
<clipPath id="clip0_257_249">
<rect width="52" height="40" fill="white" transform="translate(14 20)"/>
</clipPath>
</defs>
</svg>
