<svg width="80" height="80" viewBox="0 0 80 80" fill="none" xmlns="http://www.w3.org/2000/svg">
<g clip-path="url(#clip0_289_240)">
<path d="M41.0448 60C30.9541 59.974 23.1347 53.7337 20.934 44.8451C20.6199 43.5772 20.4337 42.2958 20.3631 41.0032C20.3181 40.1893 20.0344 39.9085 19.2372 39.9196C17.7388 39.9394 17.7363 39.8986 18.519 38.5677C19.4599 36.9683 20.4191 35.3788 21.3405 33.7683C21.6704 33.1919 21.9236 33.114 22.2814 33.7288C23.3294 35.5335 24.3921 37.3295 25.4486 39.1292C25.7408 39.6265 25.7176 39.9518 25.0348 39.9308C24.8059 39.9233 24.5734 39.9543 24.347 39.9308C23.4317 39.833 23.2406 40.3031 23.3027 41.1355C23.9721 50.0996 31.3059 57.1229 40.1319 56.9596C46.9459 56.8347 51.928 53.474 55.1171 47.3598C55.2619 47.0827 55.2534 46.609 55.6575 46.604C56.0349 46.5991 56.0471 47.0839 56.2649 47.3115C57.6818 48.7872 57.201 50.0909 56.1176 51.5629C52.0667 57.0611 46.666 59.7947 41.0461 60.0013L41.0448 60Z" fill="#706AB0"/>
<path d="M40.1067 20C48.9887 20.0136 56.813 26.207 59.0612 34.9793C59.4093 36.3399 59.626 37.7166 59.6953 39.1107C59.7319 39.8392 59.9899 40.1485 60.7008 40.0854C60.96 40.0619 61.2242 40.0891 61.4859 40.099C62.0032 40.1188 62.1261 40.3711 61.8681 40.8115C60.7616 42.6978 59.654 44.5829 58.5378 46.463C58.3004 46.8638 58.0704 46.8489 57.8257 46.4308C56.7375 44.573 55.6298 42.7275 54.5392 40.8721C54.1327 40.1806 54.566 40.0582 55.1089 40.0928C56.7959 40.2004 56.886 40.1015 56.6474 38.1793C55.7759 31.13 51.1249 25.5687 44.5617 23.6886C36.8701 21.4831 28.8072 25.0566 25.1105 32.2939C24.9073 32.691 24.8659 33.375 24.4094 33.4034C23.8738 33.4381 23.8337 32.6922 23.516 32.3397C22.4984 31.2079 22.7528 30.2196 23.5647 29.0099C27.3539 23.3608 33.4424 19.9901 40.1067 20Z" fill="#706AB0"/>
<path d="M40.0862 27.82C41.6759 27.8224 41.7039 27.8224 41.7185 29.4626C41.7258 30.2505 41.9814 30.6241 42.7884 30.8269C44.9331 31.3662 46.4571 32.6588 47.0718 34.9076C47.2763 35.6547 47.1327 36.079 46.2745 36.0307C45.8826 36.0085 45.487 36.0048 45.0963 36.0369C44.3842 36.095 43.9435 35.8885 43.7366 35.1006C43.5553 34.4091 43.0124 33.9069 42.3514 33.6274C40.797 32.9693 39.2244 32.9681 37.6785 33.6521C36.824 34.0306 36.3311 34.7295 36.3505 35.6881C36.37 36.5997 36.9604 37.0982 37.7491 37.426C39.396 38.1113 41.1732 38.2881 42.859 38.8213C43.3581 38.9796 43.862 39.1293 44.3489 39.3197C46.1102 40.0075 47.3944 41.1121 47.6013 43.1703C47.8301 45.4525 47.0085 47.2064 45.0816 48.3988C44.3817 48.8318 43.6332 49.1831 42.8042 49.282C42.0057 49.3773 41.7136 49.804 41.7148 50.6229C41.7173 52.1752 41.6783 52.1764 40.1872 52.1839C39.9584 52.1839 39.7271 52.1628 39.4995 52.1839C38.6718 52.2667 38.2336 51.9303 38.3395 51.0521C38.4782 49.903 38.0826 49.3834 36.8825 49.0878C34.5345 48.5077 33.0665 46.8762 32.5212 44.4419C32.3483 43.6688 32.5029 43.1901 33.4049 43.2445C33.764 43.2656 34.1279 43.2742 34.4858 43.2433C35.2197 43.1777 35.6153 43.4511 35.815 44.2217C36.0596 45.1643 36.7352 45.8297 37.597 46.2441C39.2536 47.0407 40.9662 47.0456 42.6582 46.4111C43.8109 45.9782 44.3197 45.1544 44.3124 44.0708C44.3051 42.8871 43.5041 42.3329 42.5839 42.0311C40.7484 41.43 38.8738 40.9537 37.0188 40.4132C36.6427 40.3031 36.2799 40.146 35.9184 39.9914C34.246 39.2715 33.2296 38.0865 33.114 36.1544C32.9983 34.2075 33.6897 32.712 35.2964 31.6681C35.9294 31.2562 36.6049 30.8925 37.3608 30.7738C38.0826 30.66 38.3614 30.2518 38.3407 29.5381C38.2823 27.507 38.5476 27.8534 40.0898 27.8224L40.0862 27.82Z" fill="#706AB0"/>
</g>
<defs>
<clipPath id="clip0_289_240">
<rect width="44" height="40" fill="white" transform="translate(18 20)"/>
</clipPath>
</defs>
</svg>
