<svg width="147" height="147" viewBox="0 0 147 147" fill="none" xmlns="http://www.w3.org/2000/svg">
<g clip-path="url(#clip0_311_245)">
<path d="M143.5 68.1901C141.248 67.2472 139.139 67.6775 137.345 69.3298C135.84 70.7167 135.364 72.5659 135.378 74.5341C135.401 77.674 135.167 80.791 134.646 83.8806C130.042 111.032 107.406 132.559 80.0388 135.076C57.3935 137.159 38.6147 129.112 24.5077 111.211C13.7731 97.5938 9.67322 81.8072 12.3363 64.7023C16.0655 40.7363 29.7424 24.4004 52.1452 15.3651C58.7159 12.715 65.6299 11.6393 72.7314 11.5936C76.7901 11.5661 79.3982 8.95712 79.2747 5.4739C79.1649 2.10511 76.6528 0.0270808 72.7131 -0.000382166C61.1868 -0.0781938 50.3515 2.73676 40.1339 7.95929C8.32795 24.2311 -7.13802 60.9353 3.17568 94.8841C12.4553 125.432 41.4837 147.334 74.0995 146.945C78.5838 147.196 83.7315 146.574 88.8105 145.448C108.18 141.141 123.513 130.755 134.623 114.355C142.923 102.102 147.156 88.4852 146.996 73.5957C146.968 71.0371 145.847 69.1742 143.5 68.1901V68.1901ZM66.7052 83.9767C59.6494 76.0628 52.4014 68.3137 45.2175 60.5096C43.9775 59.164 42.4767 58.3446 40.5274 58.2623C40.23 58.2943 39.8456 58.308 39.475 58.3904C34.6705 59.4065 33.3572 64.8168 36.9995 68.7943C45.6568 78.2461 54.3507 87.6705 63.0354 97.0994C66.7006 101.077 69.6702 101.141 73.5184 97.3054C96.1683 74.74 118.814 52.1701 141.454 29.6001C142.049 29.0096 142.667 28.4329 143.189 27.7738C145.042 25.4212 144.932 22.3682 142.964 20.2398C140.988 18.1069 137.931 17.6995 135.474 19.3747C134.476 20.0521 133.621 20.9538 132.756 21.8144C112.019 42.5168 91.2723 63.2147 70.5808 83.963C69.1074 85.4414 68.3204 85.7801 66.7052 83.9722V83.9767Z" fill="#6D6AA6"/>
</g>
<defs>
<clipPath id="clip0_311_245">
<rect width="147" height="147" fill="white"/>
</clipPath>
</defs>
</svg>
